<svg width="20" height="20" viewBox="0 0 20 20" fill="none" xmlns="http://www.w3.org/2000/svg">
<path d="M15.8333 2.5H4.16667C3.72464 2.5 3.30072 2.67559 2.98816 2.98816C2.67559 3.30072 2.5 3.72464 2.5 4.16667V15.8333C2.5 16.2754 2.67559 16.6993 2.98816 17.0118C3.30072 17.3244 3.72464 17.5 4.16667 17.5H15.8333C16.2754 17.5 16.6993 17.3244 17.0118 17.0118C17.3244 16.6993 17.5 16.2754 17.5 15.8333V4.16667C17.5 3.72464 17.3244 3.30072 17.0118 2.98816C16.6993 2.67559 16.2754 2.5 15.8333 2.5ZM15.8333 15.8333H4.16667V4.16667H15.8333V15.8333ZM14.1667 7L11.1667 10L14.1667 13L13 14.1667L10 11.1667L7 14.1667L5.83333 13L8.83333 10L5.83333 7L7 5.83333L10 8.83333L13 5.83333L14.1667 7Z" fill="black"/>
</svg>
