<svg width="36" height="36" viewBox="0 0 36 36" fill="none" xmlns="http://www.w3.org/2000/svg">
<path d="M18 23.25C21.315 23.25 24 20.565 24 17.25V9C24 5.685 21.315 3 18 3C14.685 3 12 5.685 12 9V17.25C12 20.565 14.685 23.25 18 23.25Z" stroke="white" stroke-width="1.5" stroke-linecap="round" stroke-linejoin="round"/>
<path d="M6.52539 14.4746V17.0246C6.52539 23.3546 11.6704 28.4996 18.0004 28.4996C24.3304 28.4996 29.4754 23.3546 29.4754 17.0246V14.4746" stroke="white" stroke-width="1.5" stroke-linecap="round" stroke-linejoin="round"/>
<path d="M15.9141 9.64469C17.2641 9.14969 18.7341 9.14969 20.0841 9.64469" stroke="white" stroke-width="1.5" stroke-linecap="round" stroke-linejoin="round"/>
<path d="M16.8008 12.8255C17.5958 12.6155 18.4208 12.6155 19.2158 12.8255" stroke="white" stroke-width="1.5" stroke-linecap="round" stroke-linejoin="round"/>
<path d="M18 28.5V33" stroke="white" stroke-width="1.5" stroke-linecap="round" stroke-linejoin="round"/>
</svg>
