<svg width="28" height="28" viewBox="0 0 28 28" fill="none" xmlns="http://www.w3.org/2000/svg">
<path d="M14.617 23.8234H7.2437C3.55703 23.8234 2.33203 21.3734 2.33203 18.9118V9.08842C2.33203 5.40176 3.55703 4.17676 7.2437 4.17676H14.617C18.3037 4.17676 19.5287 5.40176 19.5287 9.08842V18.9118C19.5287 22.5984 18.292 23.8234 14.617 23.8234Z" stroke="white" stroke-width="2.25" stroke-linecap="round" stroke-linejoin="round"/>
<path d="M22.7726 19.9502L19.5293 17.6752V10.3135L22.7726 8.03849C24.3593 6.93015 25.666 7.60682 25.666 9.55515V18.4452C25.666 20.3935 24.3593 21.0702 22.7726 19.9502Z" stroke="white" stroke-width="2.25" stroke-linecap="round" stroke-linejoin="round"/>
<path d="M13.416 12.834C14.3825 12.834 15.166 12.0505 15.166 11.084C15.166 10.1175 14.3825 9.33398 13.416 9.33398C12.4495 9.33398 11.666 10.1175 11.666 11.084C11.666 12.0505 12.4495 12.834 13.416 12.834Z" stroke="white" stroke-width="2.25" stroke-linecap="round" stroke-linejoin="round"/>
</svg>
